# xmcd CD database file
#
# Track frame offsets:
#	150
#	15528
#	28946
#	39099
#	53396
#	70704
#	78326
#	95745
#	101733
#	119089
#	139935
#	161954
#	176903
#
# Disc length: 2568 seconds
#
# Revision: 0
# Processed by: cddbd v1.5.1PL0 Copyright (c) Steve Scherf et al.
# Submitted via: CDex 1.51
#
DISCID=af0a060d
DTITLE=Wolfgang Mitschke - Journey to Sydney
DYEAR=1998
DGENRE=Jazz
TTITLE0=Journey to Sydney
TTITLE1=You Never Know (Ballad Version)
TTITLE2=Fusion Mix
TTITLE3=Upper Manhattan Groove
TTITLE4=Girl From Ipanema
TTITLE5=Midnight Piano
TTITLE6=Night And Day
TTITLE7=The C-Minor Blues
TTITLE8=If I Should Loose You
TTITLE9=Ther Is No Greater Love
TTITLE10=You Never Know (Latin Version)
TTITLE11=Stella By Starlight
TTITLE12=In Your Own Sweet Way
EXTD=YEAR: 1998
EXTT0=
EXTT1=
EXTT2=
EXTT3=
EXTT4=
EXTT5=
EXTT6=
EXTT7=
EXTT8=
EXTT9=
EXTT10=
EXTT11=
EXTT12=
PLAYORDER=
